# xmcd
#
# Track frame offsets: 
#        150
#        17258
#        32550
#        52018
#        66137
#        83414
#        100848
#        117403
#        134295
#        151368
#        170639
#
# Disc length: 2500 seconds
#
# Revision: 3
# Processed by: cddbd v1.5.2PL0 Copyright (c) Steve Scherf et al.
# Submitted via: ExactAudioCopy v0.99pb4
#
DISCID=8309c20b
DTITLE=Jason Michael Carroll - Waitin' In The Country
DYEAR=2007
DGENRE=Country
TTITLE0=Waitin' In The Country
TTITLE1=I Can Sleep When I'm Dead
TTITLE2=Alyssa Lies
TTITLE3=Lookin' At You
TTITLE4=No Good In Goodbye
TTITLE5=Livin' Our Love Song
TTITLE6=Anywhere USA
TTITLE7=Honky Tonk Friends
TTITLE8=Love Won't Let Me
TTITLE9=Angel Of Broken Hearts
TTITLE10=Let It Rain
EXTD=YEAR: 2007
EXTT0=
EXTT1=
EXTT2=
EXTT3=
EXTT4=
EXTT5=
EXTT6=
EXTT7=
EXTT8=
EXTT9=
EXTT10=
PLAYORDER=
